<mxfile host="app.diagrams.net" modified="2024-04-20T14:46:02.683Z" agent="Mozilla/5.0 (Windows NT 10.0; Win64; x64) AppleWebKit/537.36 (KHTML, like Gecko) Chrome/123.0.0.0 Safari/537.36" version="24.2.5" etag="L-ILlNKkFu1-B2MhKXBg" type="device">
  <diagram id="-vKaQO1VEzuR-oeYbxUk" name="Page-1">
    <mxGraphModel dx="1434" dy="700" grid="0" gridSize="10" guides="1" tooltips="1" connect="1" arrows="1" fold="1" page="0" pageScale="1" pageWidth="850" pageHeight="1100" math="0" shadow="0">
      <root>
        <mxCell id="0" />
        <mxCell id="1" parent="0" />
        <mxCell id="ENmyvnz1ZdXFTaUTgGwa-9" value="«Service»&lt;br&gt;&lt;b&gt;MongoDB&lt;/b&gt;" style="html=1;dropTarget=0;whiteSpace=wrap;" vertex="1" parent="1">
          <mxGeometry x="190" y="310" width="180" height="90" as="geometry" />
        </mxCell>
        <mxCell id="ENmyvnz1ZdXFTaUTgGwa-10" value="" style="shape=module;jettyWidth=8;jettyHeight=4;" vertex="1" parent="ENmyvnz1ZdXFTaUTgGwa-9">
          <mxGeometry x="1" width="20" height="20" relative="1" as="geometry">
            <mxPoint x="-27" y="7" as="offset" />
          </mxGeometry>
        </mxCell>
        <mxCell id="ENmyvnz1ZdXFTaUTgGwa-11" value="«Service»&lt;br&gt;&lt;b&gt;Kafka&lt;/b&gt;" style="html=1;dropTarget=0;whiteSpace=wrap;" vertex="1" parent="1">
          <mxGeometry x="590" y="310" width="180" height="90" as="geometry" />
        </mxCell>
        <mxCell id="ENmyvnz1ZdXFTaUTgGwa-12" value="" style="shape=module;jettyWidth=8;jettyHeight=4;" vertex="1" parent="ENmyvnz1ZdXFTaUTgGwa-11">
          <mxGeometry x="1" width="20" height="20" relative="1" as="geometry">
            <mxPoint x="-27" y="7" as="offset" />
          </mxGeometry>
        </mxCell>
        <mxCell id="ENmyvnz1ZdXFTaUTgGwa-13" value="«Service»&lt;br&gt;&lt;b&gt;Pinot&lt;/b&gt;" style="html=1;dropTarget=0;whiteSpace=wrap;" vertex="1" parent="1">
          <mxGeometry x="960" y="310" width="180" height="90" as="geometry" />
        </mxCell>
        <mxCell id="ENmyvnz1ZdXFTaUTgGwa-14" value="" style="shape=module;jettyWidth=8;jettyHeight=4;" vertex="1" parent="ENmyvnz1ZdXFTaUTgGwa-13">
          <mxGeometry x="1" width="20" height="20" relative="1" as="geometry">
            <mxPoint x="-27" y="7" as="offset" />
          </mxGeometry>
        </mxCell>
        <mxCell id="ENmyvnz1ZdXFTaUTgGwa-15" value="&lt;b&gt;TrackBZ API&lt;/b&gt;" style="html=1;dropTarget=0;whiteSpace=wrap;" vertex="1" parent="1">
          <mxGeometry x="590" y="110" width="180" height="90" as="geometry" />
        </mxCell>
        <mxCell id="ENmyvnz1ZdXFTaUTgGwa-16" value="" style="shape=module;jettyWidth=8;jettyHeight=4;" vertex="1" parent="ENmyvnz1ZdXFTaUTgGwa-15">
          <mxGeometry x="1" width="20" height="20" relative="1" as="geometry">
            <mxPoint x="-27" y="7" as="offset" />
          </mxGeometry>
        </mxCell>
        <mxCell id="ENmyvnz1ZdXFTaUTgGwa-17" value="Use" style="endArrow=open;endSize=12;dashed=1;html=1;rounded=0;exitX=0.5;exitY=1;exitDx=0;exitDy=0;entryX=0.456;entryY=0.017;entryDx=0;entryDy=0;entryPerimeter=0;" edge="1" parent="1" source="ENmyvnz1ZdXFTaUTgGwa-15" target="ENmyvnz1ZdXFTaUTgGwa-9">
          <mxGeometry width="160" relative="1" as="geometry">
            <mxPoint x="340" y="360" as="sourcePoint" />
            <mxPoint x="500" y="360" as="targetPoint" />
          </mxGeometry>
        </mxCell>
        <mxCell id="ENmyvnz1ZdXFTaUTgGwa-18" value="Use" style="endArrow=open;endSize=12;dashed=1;html=1;rounded=0;exitX=0.5;exitY=1;exitDx=0;exitDy=0;entryX=0.561;entryY=-0.061;entryDx=0;entryDy=0;entryPerimeter=0;" edge="1" parent="1" source="ENmyvnz1ZdXFTaUTgGwa-15" target="ENmyvnz1ZdXFTaUTgGwa-13">
          <mxGeometry width="160" relative="1" as="geometry">
            <mxPoint x="690" y="210" as="sourcePoint" />
            <mxPoint x="282" y="322" as="targetPoint" />
          </mxGeometry>
        </mxCell>
        <mxCell id="ENmyvnz1ZdXFTaUTgGwa-25" style="edgeStyle=orthogonalEdgeStyle;rounded=0;orthogonalLoop=1;jettySize=auto;html=1;" edge="1" parent="1" source="ENmyvnz1ZdXFTaUTgGwa-24" target="ENmyvnz1ZdXFTaUTgGwa-9">
          <mxGeometry relative="1" as="geometry" />
        </mxCell>
        <mxCell id="ENmyvnz1ZdXFTaUTgGwa-24" value="" style="shape=providedRequiredInterface;html=1;verticalLabelPosition=bottom;sketch=0;" vertex="1" parent="1">
          <mxGeometry x="480" y="345" width="20" height="20" as="geometry" />
        </mxCell>
        <mxCell id="ENmyvnz1ZdXFTaUTgGwa-26" style="edgeStyle=orthogonalEdgeStyle;rounded=0;orthogonalLoop=1;jettySize=auto;html=1;entryX=1;entryY=0.5;entryDx=0;entryDy=0;entryPerimeter=0;" edge="1" parent="1" source="ENmyvnz1ZdXFTaUTgGwa-11" target="ENmyvnz1ZdXFTaUTgGwa-24">
          <mxGeometry relative="1" as="geometry" />
        </mxCell>
        <mxCell id="ENmyvnz1ZdXFTaUTgGwa-34" style="edgeStyle=orthogonalEdgeStyle;rounded=0;orthogonalLoop=1;jettySize=auto;html=1;entryX=0;entryY=0.5;entryDx=0;entryDy=0;" edge="1" parent="1" source="ENmyvnz1ZdXFTaUTgGwa-33" target="ENmyvnz1ZdXFTaUTgGwa-13">
          <mxGeometry relative="1" as="geometry" />
        </mxCell>
        <mxCell id="ENmyvnz1ZdXFTaUTgGwa-33" value="" style="shape=providedRequiredInterface;html=1;verticalLabelPosition=bottom;sketch=0;" vertex="1" parent="1">
          <mxGeometry x="860" y="345" width="20" height="20" as="geometry" />
        </mxCell>
        <mxCell id="ENmyvnz1ZdXFTaUTgGwa-35" style="edgeStyle=orthogonalEdgeStyle;rounded=0;orthogonalLoop=1;jettySize=auto;html=1;entryX=0;entryY=0.5;entryDx=0;entryDy=0;entryPerimeter=0;" edge="1" parent="1" source="ENmyvnz1ZdXFTaUTgGwa-11" target="ENmyvnz1ZdXFTaUTgGwa-33">
          <mxGeometry relative="1" as="geometry" />
        </mxCell>
        <mxCell id="ENmyvnz1ZdXFTaUTgGwa-37" value="Use" style="endArrow=open;endSize=12;dashed=1;html=1;rounded=0;entryX=0.5;entryY=0;entryDx=0;entryDy=0;" edge="1" parent="1" source="ENmyvnz1ZdXFTaUTgGwa-15" target="ENmyvnz1ZdXFTaUTgGwa-11">
          <mxGeometry width="160" relative="1" as="geometry">
            <mxPoint x="690" y="210" as="sourcePoint" />
            <mxPoint x="1071" y="315" as="targetPoint" />
          </mxGeometry>
        </mxCell>
        <mxCell id="ENmyvnz1ZdXFTaUTgGwa-40" value="«Service»&lt;br&gt;&lt;b&gt;Ngrok&lt;/b&gt;" style="html=1;dropTarget=0;whiteSpace=wrap;" vertex="1" parent="1">
          <mxGeometry x="940" y="110" width="180" height="90" as="geometry" />
        </mxCell>
        <mxCell id="ENmyvnz1ZdXFTaUTgGwa-41" value="" style="shape=module;jettyWidth=8;jettyHeight=4;" vertex="1" parent="ENmyvnz1ZdXFTaUTgGwa-40">
          <mxGeometry x="1" width="20" height="20" relative="1" as="geometry">
            <mxPoint x="-27" y="7" as="offset" />
          </mxGeometry>
        </mxCell>
        <mxCell id="ENmyvnz1ZdXFTaUTgGwa-42" value="Use" style="endArrow=open;endSize=12;dashed=1;html=1;rounded=0;entryX=0;entryY=0.5;entryDx=0;entryDy=0;" edge="1" parent="1" source="ENmyvnz1ZdXFTaUTgGwa-15" target="ENmyvnz1ZdXFTaUTgGwa-40">
          <mxGeometry width="160" relative="1" as="geometry">
            <mxPoint x="690" y="210" as="sourcePoint" />
            <mxPoint x="1071" y="315" as="targetPoint" />
          </mxGeometry>
        </mxCell>
        <mxCell id="ENmyvnz1ZdXFTaUTgGwa-43" value="Serviço Banco de Dados" style="verticalAlign=top;align=left;spacingTop=8;spacingLeft=2;spacingRight=12;shape=cube;size=10;direction=south;fontStyle=4;html=1;whiteSpace=wrap;" vertex="1" parent="1">
          <mxGeometry x="190" y="894" width="230" height="150" as="geometry" />
        </mxCell>
        <mxCell id="ENmyvnz1ZdXFTaUTgGwa-45" value="&lt;b&gt;MongoDB&lt;/b&gt;" style="html=1;dropTarget=0;whiteSpace=wrap;" vertex="1" parent="1">
          <mxGeometry x="240" y="954" width="130" height="40" as="geometry" />
        </mxCell>
        <mxCell id="ENmyvnz1ZdXFTaUTgGwa-46" value="" style="shape=module;jettyWidth=8;jettyHeight=4;" vertex="1" parent="ENmyvnz1ZdXFTaUTgGwa-45">
          <mxGeometry x="1" width="20" height="20" relative="1" as="geometry">
            <mxPoint x="-27" y="7" as="offset" />
          </mxGeometry>
        </mxCell>
        <mxCell id="ENmyvnz1ZdXFTaUTgGwa-47" value="Serviço Broker" style="verticalAlign=top;align=left;spacingTop=8;spacingLeft=2;spacingRight=12;shape=cube;size=10;direction=south;fontStyle=4;html=1;whiteSpace=wrap;" vertex="1" parent="1">
          <mxGeometry x="551" y="884" width="230" height="150" as="geometry" />
        </mxCell>
        <mxCell id="ENmyvnz1ZdXFTaUTgGwa-48" value="&lt;b&gt;Kafka&lt;/b&gt;" style="html=1;dropTarget=0;whiteSpace=wrap;" vertex="1" parent="1">
          <mxGeometry x="600" y="944" width="130" height="40" as="geometry" />
        </mxCell>
        <mxCell id="ENmyvnz1ZdXFTaUTgGwa-49" value="" style="shape=module;jettyWidth=8;jettyHeight=4;" vertex="1" parent="ENmyvnz1ZdXFTaUTgGwa-48">
          <mxGeometry x="1" width="20" height="20" relative="1" as="geometry">
            <mxPoint x="-27" y="7" as="offset" />
          </mxGeometry>
        </mxCell>
        <mxCell id="ENmyvnz1ZdXFTaUTgGwa-50" value="Serviço Armazenamento Diistribuído" style="verticalAlign=top;align=left;spacingTop=8;spacingLeft=2;spacingRight=12;shape=cube;size=10;direction=south;fontStyle=4;html=1;whiteSpace=wrap;" vertex="1" parent="1">
          <mxGeometry x="940" y="874" width="230" height="150" as="geometry" />
        </mxCell>
        <mxCell id="ENmyvnz1ZdXFTaUTgGwa-51" value="&lt;b&gt;Pinot&lt;/b&gt;" style="html=1;dropTarget=0;whiteSpace=wrap;" vertex="1" parent="1">
          <mxGeometry x="990" y="934" width="130" height="40" as="geometry" />
        </mxCell>
        <mxCell id="ENmyvnz1ZdXFTaUTgGwa-52" value="" style="shape=module;jettyWidth=8;jettyHeight=4;" vertex="1" parent="ENmyvnz1ZdXFTaUTgGwa-51">
          <mxGeometry x="1" width="20" height="20" relative="1" as="geometry">
            <mxPoint x="-27" y="7" as="offset" />
          </mxGeometry>
        </mxCell>
        <mxCell id="ENmyvnz1ZdXFTaUTgGwa-65" style="edgeStyle=orthogonalEdgeStyle;rounded=0;orthogonalLoop=1;jettySize=auto;html=1;" edge="1" parent="1" source="ENmyvnz1ZdXFTaUTgGwa-53" target="ENmyvnz1ZdXFTaUTgGwa-64">
          <mxGeometry relative="1" as="geometry" />
        </mxCell>
        <mxCell id="ENmyvnz1ZdXFTaUTgGwa-67" value="HTTP" style="edgeLabel;html=1;align=center;verticalAlign=middle;resizable=0;points=[];" vertex="1" connectable="0" parent="ENmyvnz1ZdXFTaUTgGwa-65">
          <mxGeometry x="-0.0333" y="-1" relative="1" as="geometry">
            <mxPoint as="offset" />
          </mxGeometry>
        </mxCell>
        <mxCell id="ENmyvnz1ZdXFTaUTgGwa-53" value="Servidor Aplicação" style="verticalAlign=top;align=left;spacingTop=8;spacingLeft=2;spacingRight=12;shape=cube;size=10;direction=south;fontStyle=4;html=1;whiteSpace=wrap;" vertex="1" parent="1">
          <mxGeometry x="551" y="510" width="230" height="150" as="geometry" />
        </mxCell>
        <mxCell id="ENmyvnz1ZdXFTaUTgGwa-54" value="&lt;b&gt;API&lt;/b&gt;" style="html=1;dropTarget=0;whiteSpace=wrap;" vertex="1" parent="1">
          <mxGeometry x="590" y="570" width="130" height="40" as="geometry" />
        </mxCell>
        <mxCell id="ENmyvnz1ZdXFTaUTgGwa-55" value="" style="shape=module;jettyWidth=8;jettyHeight=4;" vertex="1" parent="ENmyvnz1ZdXFTaUTgGwa-54">
          <mxGeometry x="1" width="20" height="20" relative="1" as="geometry">
            <mxPoint x="-27" y="7" as="offset" />
          </mxGeometry>
        </mxCell>
        <mxCell id="ENmyvnz1ZdXFTaUTgGwa-70" style="edgeStyle=orthogonalEdgeStyle;rounded=0;orthogonalLoop=1;jettySize=auto;html=1;" edge="1" parent="1" source="ENmyvnz1ZdXFTaUTgGwa-64" target="ENmyvnz1ZdXFTaUTgGwa-43">
          <mxGeometry relative="1" as="geometry" />
        </mxCell>
        <mxCell id="ENmyvnz1ZdXFTaUTgGwa-71" value="HTTP" style="edgeLabel;html=1;align=center;verticalAlign=middle;resizable=0;points=[];" vertex="1" connectable="0" parent="ENmyvnz1ZdXFTaUTgGwa-70">
          <mxGeometry x="-0.1257" y="1" relative="1" as="geometry">
            <mxPoint as="offset" />
          </mxGeometry>
        </mxCell>
        <mxCell id="ENmyvnz1ZdXFTaUTgGwa-72" style="edgeStyle=orthogonalEdgeStyle;rounded=0;orthogonalLoop=1;jettySize=auto;html=1;" edge="1" parent="1" source="ENmyvnz1ZdXFTaUTgGwa-64" target="ENmyvnz1ZdXFTaUTgGwa-47">
          <mxGeometry relative="1" as="geometry" />
        </mxCell>
        <mxCell id="ENmyvnz1ZdXFTaUTgGwa-73" value="HTTP" style="edgeLabel;html=1;align=center;verticalAlign=middle;resizable=0;points=[];" vertex="1" connectable="0" parent="ENmyvnz1ZdXFTaUTgGwa-72">
          <mxGeometry x="-0.2593" y="-6" relative="1" as="geometry">
            <mxPoint as="offset" />
          </mxGeometry>
        </mxCell>
        <mxCell id="ENmyvnz1ZdXFTaUTgGwa-74" style="edgeStyle=orthogonalEdgeStyle;rounded=0;orthogonalLoop=1;jettySize=auto;html=1;" edge="1" parent="1" source="ENmyvnz1ZdXFTaUTgGwa-64" target="ENmyvnz1ZdXFTaUTgGwa-50">
          <mxGeometry relative="1" as="geometry" />
        </mxCell>
        <mxCell id="ENmyvnz1ZdXFTaUTgGwa-75" value="HTTP" style="edgeLabel;html=1;align=center;verticalAlign=middle;resizable=0;points=[];" vertex="1" connectable="0" parent="ENmyvnz1ZdXFTaUTgGwa-74">
          <mxGeometry x="-0.293" y="3" relative="1" as="geometry">
            <mxPoint as="offset" />
          </mxGeometry>
        </mxCell>
        <mxCell id="ENmyvnz1ZdXFTaUTgGwa-64" value="" style="outlineConnect=0;dashed=0;verticalLabelPosition=bottom;verticalAlign=top;align=center;html=1;shape=mxgraph.aws3.internet_3;fillColor=#D2D3D3;gradientColor=none;" vertex="1" parent="1">
          <mxGeometry x="578.63" y="720" width="174.75" height="110" as="geometry" />
        </mxCell>
        <mxCell id="ENmyvnz1ZdXFTaUTgGwa-66" style="edgeStyle=orthogonalEdgeStyle;rounded=0;orthogonalLoop=1;jettySize=auto;html=1;exitX=0;exitY=0;exitDx=0;exitDy=6;exitPerimeter=0;entryX=0.75;entryY=0;entryDx=0;entryDy=0;" edge="1" parent="1" source="ENmyvnz1ZdXFTaUTgGwa-55" target="ENmyvnz1ZdXFTaUTgGwa-54">
          <mxGeometry relative="1" as="geometry" />
        </mxCell>
      </root>
    </mxGraphModel>
  </diagram>
</mxfile>
